<svg width="311" height="181" viewBox="0 0 311 181" fill="none" xmlns="http://www.w3.org/2000/svg">
<rect width="311" height="181" fill="#98A4BD"/>
<path d="M92.6274 77.0573C91.5046 77.0573 87.7322 76.7046 84.6202 75.4445C82.4487 74.5652 80.4811 71.9853 79.5799 70.2637C78.9872 69.1314 78.9904 65.2408 79.0487 60.1247C79.0991 55.6994 80.6864 53.5938 83.0945 50.5136C86.1557 46.5981 89.8758 46.1636 94.3018 45.653C100.814 44.9017 102.78 46.1531 106.175 48.292C109.611 50.4563 111.556 55.6572 112.827 60.7858C113.475 63.3984 112.846 65.3592 112.231 66.4993C109.808 70.9945 104.409 74.3295 101.75 75.6802C98.0927 76.6843 94.7905 76.9338 91.6009 76.7513C90.3718 76.5669 89.9334 76.196 89.318 75.6059" stroke="#181B22" stroke-width="1.61693" stroke-linecap="round"/>
<path d="M88.6521 64.0391C88.677 64.4707 89.335 66.3078 90.4071 67.681C91.7014 69.3387 95.2462 69.3884 98.9675 69.4188C100.21 69.2454 100.961 68.8312 101.5 68.2507C101.739 67.9653 101.909 67.6986 101.941 67.3867" stroke="#181B22" stroke-width="1.61693" stroke-linecap="round"/>
<path d="M91.3946 56.6858C91.3693 56.6858 91.4542 56.3501 91.7135 55.9668C91.875 55.9193 92.0971 56.1702 92.076 56.3729C92.0549 56.5755 91.7839 56.7223 91.2583 56.2434" stroke="#181B22" stroke-width="1.61693" stroke-linecap="round"/>
<path d="M100.539 56.2266C100.539 56.2494 100.523 56.5638 100.358 57.1184C100.274 57.3991 99.9265 57.5625 99.7295 57.481C99.5325 57.3995 99.4291 57.0385 99.5031 56.7553C99.5771 56.472 99.8316 56.2775 99.996 56.3604C100.16 56.4433 100.227 56.8094 99.7136 56.8889" stroke="#181B22" stroke-width="1.61693" stroke-linecap="round"/>
<path d="M95.8383 77.2598C95.8383 77.2827 95.8383 77.3056 95.8487 83.0896C95.8591 88.8736 95.8799 100.418 95.9016 106.643C95.9232 112.868 95.945 113.423 95.909 113.857C95.8729 114.291 95.7784 114.587 93.8411 119.136C91.9037 123.686 88.1265 132.48 86.1425 137.162C84.0819 142.144 83.548 143.542 82.739 145.588C82.385 146.546 82.1459 147.341 81.3759 148.405" stroke="#181B22" stroke-width="1.61693" stroke-linecap="round"/>
<path d="M95.9282 113.641C95.9282 113.732 96.0202 114.165 97.8834 119.263C99.6172 124.007 103.102 133.004 104.924 137.814C107.26 143.983 108.03 146.507 108.7 147.595C108.918 147.612 109.21 147.333 109.733 146.988C110.257 146.642 111.004 146.238 112.097 145.26" stroke="#181B22" stroke-width="1.61693" stroke-linecap="round"/>
<path d="M80.9694 148.695C80.9576 148.683 80.9457 148.671 80.6104 148.38C80.275 148.089 79.6165 147.519 79.0524 147.085C78.4883 146.651 78.0385 146.37 77.3336 145.979" stroke="#181B22" stroke-width="1.61693" stroke-linecap="round"/>
<path d="M94.3106 86.1523C94.3169 86.1523 94.3233 86.1523 92.1157 89.6967C89.9081 93.241 85.4864 100.33 83.1612 104.423C80.7415 109.398 80.4619 111.181 80.1309 112.617C79.9821 113.18 79.8722 113.407 79.7589 113.64" stroke="#181B22" stroke-width="1.61693" stroke-linecap="round"/>
<path d="M96.7367 86.1523C97.2223 86.3796 99.2287 87.9105 102.705 92.4279C105.2 95.6694 108.858 101.669 110.783 105.084C112.709 108.498 112.709 109.358 112.738 110.093C112.767 110.827 112.825 111.41 112.906 112.023" stroke="#181B22" stroke-width="1.61693" stroke-linecap="round"/>
<path d="M150.351 119.551C149.722 119.602 146.345 118.243 145.096 117.52C143.462 116.576 144.057 112.513 143.804 109.167C143.724 108.109 144.657 106.991 145.595 105.718C146.745 104.156 151.188 103.183 154.512 102.469C156.999 101.934 158.592 102.911 161.03 104.652C163.381 106.33 164.445 108.48 164.89 109.384C165.344 110.304 165.385 111.977 165.205 113.961C164.96 116.644 162.239 117.904 159.746 119.145C154.4 120.507 151.613 120.097 149.726 119.321C148.714 118.963 147.593 118.68 145.618 118.389" stroke="#181B22" stroke-width="1.61693" stroke-linecap="round"/>
<path d="M150.702 108.53C150.702 108.522 150.702 108.278 150.788 107.907C150.823 107.755 151.046 107.761 151.187 107.839C151.327 107.916 151.429 108.086 151.487 108.248C151.544 108.409 151.553 108.555 151.514 108.67C151.476 108.784 151.389 108.863 151.274 108.874C151.159 108.885 151.018 108.828 150.782 108.535" stroke="#181B22" stroke-width="1.61693" stroke-linecap="round"/>
<path d="M158.017 108.116C158.026 108.116 158.085 107.996 158.233 107.807C158.304 107.715 158.454 107.72 158.539 107.794C158.742 107.972 158.69 108.327 158.626 108.553C158.595 108.666 158.481 108.742 158.37 108.793C158.259 108.845 158.133 108.863 158.037 108.823C157.94 108.784 157.877 108.688 157.836 108.577C157.795 108.466 157.778 108.343 157.756 108.102" stroke="#181B22" stroke-width="1.61693" stroke-linecap="round"/>
<path d="M154.525 113.523C154.398 113.516 153.929 113.338 153.521 112.971C153.312 112.783 153.271 112.286 153.318 111.748C153.366 111.183 154.841 111.163 155.594 111.042C155.689 111.027 155.729 111.182 155.727 111.299C155.715 112.141 155.028 113.072 154.893 113.244C154.833 113.32 154.686 113.256 154.592 113.185C154.01 112.749 153.522 111.853 152.952 111.65C152.813 111.6 152.693 111.574 152.681 111.513C152.562 110.888 154.341 111.117 154.823 111.187C155.001 111.213 154.995 111.398 154.937 111.596C154.802 112.06 154.572 112.518 154.423 112.874C154.359 113.027 154.225 113.076 154.11 113.077C153.873 113.078 153.404 112.505 152.917 111.804C152.789 111.552 152.903 111.508 153.292 111.471C153.68 111.434 154.34 111.405 154.995 111.375" stroke="#181B22" stroke-width="1.61693" stroke-linecap="round"/>
<path d="M154.71 113.496C154.71 114.155 154.564 115.757 154.112 116.227C153.711 116.644 151.956 116.654 150.899 116.488C150.503 116.161 150.125 115.669 149.835 114.981C149.767 114.747 149.694 114.433 149.614 113.937" stroke="#181B22" stroke-width="1.61693" stroke-linecap="round"/>
<path d="M154.724 113.882C154.724 114.269 154.781 115.136 155.04 115.526C155.354 115.997 156.133 116.227 157.165 116.566C157.541 116.689 157.863 116.658 158.135 116.604C158.543 116.294 158.888 115.736 159.264 114.748C159.382 114.376 159.533 113.852 159.678 113.156" stroke="#181B22" stroke-width="1.61693" stroke-linecap="round"/>
<path d="M144.488 106.671C144.488 106.662 144.488 106.654 144.491 105.447C144.493 104.241 144.498 101.837 144.512 100.538C144.525 99.24 144.546 99.1197 144.62 99.0879C144.819 99.1165 145.103 99.3617 145.896 100.146C146.535 100.748 147.652 101.763 149.064 102.967" stroke="#181B22" stroke-width="1.61693" stroke-linecap="round"/>
<path d="M161.775 104.149C161.791 103.936 162.993 101.369 163.887 100.234C163.97 100.267 164.03 100.374 164.1 101.505C164.17 102.637 164.248 104.789 164.307 106.841" stroke="#181B22" stroke-width="1.61693" stroke-linecap="round"/>
<path d="M140.782 111.52C140.799 111.52 141.371 111.52 142.493 111.555C143.589 111.662 144.411 111.736 144.974 111.771C145.269 111.805 145.584 111.872 145.909 111.942" stroke="#181B22" stroke-width="1.61693" stroke-linecap="round"/>
<path d="M146.833 113.027C146.808 113.07 146.291 113.525 145.262 114.359C144.204 115.114 143.419 115.564 143.016 115.734C142.85 115.821 142.761 115.909 142.389 116.069" stroke="#181B22" stroke-width="1.61693" stroke-linecap="round"/>
<path d="M162.995 112.323C162.99 112.313 162.985 112.303 163.719 111.946C164.453 111.589 165.926 110.885 166.779 110.492C167.632 110.099 167.821 110.037 168.196 109.953" stroke="#181B22" stroke-width="1.61693" stroke-linecap="round"/>
<path d="M162.603 114.666C162.645 114.666 162.817 114.666 163.124 114.677C163.281 114.688 163.441 114.71 164.601 115.026C165.762 115.342 167.918 115.951 170.192 116.579" stroke="#181B22" stroke-width="1.61693" stroke-linecap="round"/>
<path d="M153.039 120.219C153.033 121.44 152.995 124.03 152.538 125.11C152.132 126.069 151.268 127.817 150.033 130.216C148.798 132.616 147.193 135.602 146.285 137.365C145.161 139.546 144.975 140.343 144.771 141.978C144.607 143.3 144.468 145.638 144.384 146.908C144.3 148.178 144.313 148.314 144.369 148.365C144.79 148.316 145.957 148.296 149.006 148.558C151.232 148.789 154.835 149.221 158.498 149.665" stroke="#181B22" stroke-width="1.61693" stroke-linecap="round"/>
<path d="M147.859 133.943C147.841 133.961 147.086 135.069 145.465 137.953C144.49 139.686 143.607 142.178 143.067 143.489C142.48 144.916 142.262 145.182 141.983 145.503C141.694 145.836 141.089 146.171 139.827 146.692C138.984 147.039 137.678 147.416 136.427 147.715C135.175 148.013 134.005 148.186 133.099 148.277C131.591 148.428 130.722 148.315 130.224 148.126C128.959 147.647 128.429 146.31 128.278 145.789C128.248 145.683 128.281 145.571 128.335 145.488C128.574 145.119 129.903 144.813 132.351 144.396C133.698 144.37 134.567 144.443 134.891 144.573C135.043 144.647 135.173 144.738 135.349 144.886" stroke="#181B22" stroke-width="1.61693" stroke-linecap="round"/>
<path d="M156.019 120.768C156.019 122.348 156.087 125.853 156.695 127.336C157.176 128.511 158.243 130.438 159.067 132.504C159.891 134.57 160.5 136.69 160.855 138.13C161.376 140.248 161.369 141.694 161.333 142.876C161.28 144.647 159.999 146.592 159.607 147.359C159.416 147.808 159.279 148.232 159.144 148.695C159.051 148.978 158.908 149.358 158.363 149.789" stroke="#181B22" stroke-width="1.61693" stroke-linecap="round"/>
<path d="M145.881 149.029C146.249 149.248 147.229 149.791 147.639 149.9C147.848 149.94 148.057 149.95 148.299 148.401C148.541 146.853 148.81 143.746 149.075 140.574" stroke="#181B22" stroke-width="1.61693" stroke-linecap="round"/>
<path d="M153.84 149.726C153.84 149.722 153.84 149.717 154.346 149.712C154.852 149.707 155.864 149.702 156.35 148.587C156.836 147.471 156.767 145.246 156.607 142.75" stroke="#181B22" stroke-width="1.61693" stroke-linecap="round"/>
<path d="M158.645 138.515C158.634 138.493 158.641 138.688 159.161 140.348C159.621 141.818 160.67 144.5 161.255 146.21C162.051 148.536 162.167 149.34 162.279 149.476C162.344 149.492 162.423 149.4 162.909 149.352C163.394 149.304 164.282 149.304 165.191 149.304" stroke="#181B22" stroke-width="1.61693" stroke-linecap="round"/>
<path d="M151.299 138.586C151.299 138.595 151.299 138.604 151.317 140.339C151.335 142.073 151.371 145.532 151.398 147.441C151.429 149.603 151.504 150.242 151.488 150.859C151.429 151.096 151.266 151.18 150.573 151.506C149.879 151.832 148.661 152.398 147.389 153.012" stroke="#181B22" stroke-width="1.61693" stroke-linecap="round"/>
<path d="M207.048 62.2633C207.05 62.2633 207.051 62.2633 207.699 59.3748C208.347 56.4863 209.64 50.7094 210.316 47.6953C210.993 44.6813 211.012 44.6052 211.045 44.4436C211.078 44.2821 211.124 44.0375 211.159 44.136C211.194 44.2345 211.215 44.6835 211.715 47.6698C212.215 50.6561 213.193 56.166 213.702 59.0371C214.211 61.9082 214.221 61.9736 214.237 62.0738" stroke="#181B22" stroke-width="1.61693" stroke-linecap="round"/>
<path d="M230.194 122.505C230.184 122.505 230.174 122.505 227.777 122.443C225.38 122.381 220.597 122.258 213.011 121.848C205.426 121.438 195.184 120.745 189.373 120.321C183.563 119.897 182.495 119.763 181.961 119.538C181.426 119.313 181.456 119.001 182.607 110.437C183.757 101.874 186.028 85.0684 187.211 76.0041C188.395 66.9398 188.423 66.1258 188.449 65.2382C188.476 64.3506 188.501 63.4142 188.669 62.9126C188.897 62.2293 190.049 62.4119 198.633 62.3958C206.634 62.3808 222.031 62.0303 229.997 62.0352C237.962 62.0401 238.029 62.3287 237.985 62.6397C237.892 63.2997 237.528 63.8844 237.28 65.2462C237.083 66.3261 236.917 68.224 236.546 77.4878C236.175 86.7517 235.647 103.331 235.361 112.018C235.066 120.996 234.972 121.581 234.816 122.134C234.737 122.412 234.535 122.644 234.313 122.832C234.091 123.021 233.825 123.15 232.069 123.269C230.314 123.388 227.079 123.495 223.637 123.529" stroke="#181B22" stroke-width="1.61693" stroke-linecap="round"/>
<path d="M194.786 120.658C194.786 120.646 194.757 121.264 193.774 125.974C192.916 130.08 190.942 137.585 189.926 141.72C188.91 145.856 188.813 146.373 188.75 146.733C188.686 147.093 188.659 147.28 188.46 147.357" stroke="#181B22" stroke-width="1.61693" stroke-linecap="round"/>
<path d="M224.821 123.602C224.821 123.59 224.847 124.709 225.468 129.748C225.952 133.678 227.227 140.331 227.88 144.002C228.533 147.673 228.639 148.145 228.732 148.579C228.824 149.013 228.899 149.396 229.125 149.717" stroke="#181B22" stroke-width="1.61693" stroke-linecap="round"/>
<path d="M198.385 70.7734C198.245 71.006 197.776 71.695 195.985 74.8221C194.977 76.5807 195.198 78.7905 195.405 80.3295C195.622 81.9401 197.019 83.102 198.132 83.8816C199.963 85.1641 202.737 85.0522 204.156 84.4724C207.261 83.2047 207.461 81.3083 207.647 80.7874C207.947 79.946 206.016 81.7101 204.724 81.7599C203.496 81.8073 201.325 80.213 199.964 78.9609C198.613 77.7184 198.623 76.4229 198.571 73.4664C198.61 72.832 198.699 72.5853 198.78 72.3893C198.861 72.1932 198.932 72.0551 199.1 71.5593" stroke="#C9C147" stroke-width="1.61693" stroke-linecap="round"/>
<path d="M229.391 109.922C229.391 109.929 229.391 109.936 226.829 109.936C224.267 109.936 219.143 109.929 216.214 109.801C212.69 109.648 211.773 108.925 211.173 108.447C210.146 107.629 209.585 105.53 209.265 104.032C208.755 101.645 209.638 100.501 210.286 99.7049C210.82 99.0502 212.118 98.889 213.323 98.9098C213.55 98.9137 213.632 99.1743 213.685 99.3776C213.792 99.7955 213.644 100.19 213.419 100.458C213.308 100.591 213.13 100.646 212.995 100.598C212.067 100.264 213.277 96.5593 214.127 94.6361C214.543 93.6946 215.635 93.5045 216.558 93.2771C218.082 92.9019 219.942 93.3262 221.187 94.2923C222.842 95.5771 223.092 97.3338 223.292 97.754C223.844 98.9165 224.334 95.8634 225.256 95.2987C226.958 94.2567 228.888 94.968 229.495 95.4148C229.644 95.5238 229.698 95.6975 229.758 95.6688C230.519 95.2998 229.922 93.657 230.405 92.3422C230.918 90.9438 231.99 90.5114 233.061 90.1068C233.465 89.9542 233.832 89.9677 234.194 90.0424C234.382 90.1196 234.577 90.2766 234.753 90.4374C234.929 90.5983 235.08 90.7581 235.403 91.2752" stroke="#3E6CD8" stroke-width="1.61693" stroke-linecap="round"/>
<path d="M185.105 102.444C185.105 102.43 185.663 102.415 186.571 102.459C187.07 102.483 187.285 102.942 187.493 103.347C187.994 104.325 188.019 105.882 188.121 106.595C188.254 107.525 190.522 106.678 191.721 107.287C192.732 107.802 192.959 109.036 193.219 109.842C193.423 110.475 194.625 110.41 195.471 111.313C196.16 112.686 196.513 113.971 196.674 114.902C196.729 115.306 196.729 115.569 196.695 115.595" stroke="#3E6CD8" stroke-width="1.61693" stroke-linecap="round"/>
<path d="M219.576 83.6683C219.571 83.6683 220.2 83.1123 221.608 81.9611C222.385 81.3659 223.287 80.7485 223.787 80.4164C224.287 80.0843 224.357 80.0563 224.438 80.0254" stroke="#9BCAE7" stroke-width="1.61693" stroke-linecap="round"/>
<path d="M222.16 79.0391C222.16 79.0494 222.16 79.0597 222.154 79.9706C222.148 80.8815 222.137 82.6926 222.108 84.4951" stroke="#9BCAE7" stroke-width="1.61693" stroke-linecap="round"/>
<path d="M220.224 80.92C220.224 80.9172 220.224 80.9144 220.26 80.9141C220.296 80.9138 220.369 80.916 221.021 81.1827C221.674 81.4493 222.904 81.9803 224.226 82.5283" stroke="#9BCAE7" stroke-width="1.61693" stroke-linecap="round"/>
<path d="M68.805 108.731C69.0496 108.745 70.7645 109.274 73.5195 110.502C75.0468 111.183 76.75 112.168 77.9566 112.889C79.843 114.017 80.6732 114.797 81.0453 115.214C81.3358 115.539 81.3756 115.928 81.3143 116.235C81.2851 116.38 81.1008 116.45 80.9376 116.493C80.2431 116.678 79.1907 115.766 77.5055 114.836C75.4639 113.709 73.67 112.946 72.9698 112.543C71.7841 111.86 69.5308 111.12 68.5446 110.844C67.4127 110.526 66.4366 113.734 65.7283 114.304C65.5098 114.48 65.16 114.39 64.8848 114.299C64.7542 114.256 64.7236 114.062 64.7126 113.899C64.6903 113.572 65.3777 112.215 66.5778 110.002C68.2026 107.005 68.6718 106.619 68.8927 106.473C69.0067 106.398 69.1586 106.379 69.2604 106.454C69.4181 106.714 69.3416 107.231 69.1314 107.797C69.0552 108.036 69.041 108.176 68.8939 108.453" stroke="#181B22" stroke-width="1.61693" stroke-linecap="round"/>
<path d="M63.8936 113.169C63.7226 113.141 62.5613 112.763 61.3084 112.178C60.7725 111.928 61.8124 110.108 63.0883 107.9C63.971 106.373 64.5296 105.402 64.7891 104.964C64.8515 104.859 64.9203 104.76 65.0082 104.748C65.4777 105.063 67.1426 106.242 68.2606 106.871C68.4067 106.922 68.5514 106.952 68.7548 107.035" stroke="#181B22" stroke-width="1.61693" stroke-linecap="round"/>
<path d="M45.1641 53.0619C45.1641 53.0845 44.8664 47.7137 45.061 40.5199C45.1191 38.3727 48.8072 43.2991 49.8954 44.4147C50.6097 44.9956 50.9192 41.1422 51.993 37.7012C53.0241 38.2697 55.0425 43.5378 57.1219 48.9655" stroke="#181B22" stroke-width="1.61693" stroke-linecap="round"/>
<path d="M60.3691 45.7865C60.3542 44.9446 59.2565 38.1053 58.7389 34.2457C59.8514 33.8605 63.1035 32.414 66.6115 30.5436C67.8994 29.8715 68.1882 29.7619 68.4405 29.6172" stroke="#181B22" stroke-width="1.61693" stroke-linecap="round"/>
<path d="M60.3558 40.935C60.5868 40.7001 62.347 39.2616 63.8251 38.2635C64.0767 38.132 64.3372 38.014 64.5658 37.9443C64.7945 37.8745 64.9834 37.8564 65.2066 37.7012" stroke="#181B22" stroke-width="1.61693" stroke-linecap="round"/>
<path d="M60.3558 45.7106C60.3669 45.6992 60.3779 45.6878 61.6603 44.9117C62.9427 44.1356 65.496 42.5951 68.3125 40.9355" stroke="#181B22" stroke-width="1.61693" stroke-linecap="round"/>
<path d="M61.9728 50.6367C62.042 50.9618 62.9457 52.4568 66.4412 55.7595C67.8655 57.1053 68.9823 57.3241 69.5214 57.3708C69.8536 57.3996 69.2921 55.9768 68.7971 54.8621C68.122 53.3415 70.7379 58.6402 70.8659 59.0174C69.9374 59.6986 68.3246 60.031 67.4801 60.1262C66.9437 60.2075 66.1883 60.3554 65.2706 60.3366" stroke="#181B22" stroke-width="1.61693" stroke-linecap="round"/>
<path d="M125.842 36.0271C125.827 36.0271 126.542 36.0004 128.034 35.8274C129.599 35.4159 130.807 34.938 131.49 34.6092C131.785 34.4853 131.974 34.4483 132.309 34.4102" stroke="#181B22" stroke-width="1.61693" stroke-linecap="round"/>
<path d="M129.075 35.2188C129.075 35.2322 129.075 35.2456 129.075 36.3787C129.075 37.5119 129.075 39.7643 129.075 42.4949" stroke="#181B22" stroke-width="1.61693" stroke-linecap="round"/>
<path d="M134.734 33.6088C134.734 33.5831 134.734 33.5574 134.734 34.8207C134.734 36.084 134.734 38.637 134.734 41.6862" stroke="#181B22" stroke-width="1.61693" stroke-linecap="round"/>
<path d="M134.734 37.6445C134.749 37.6445 134.763 37.6445 134.922 37.6445C135.081 37.6445 135.385 37.6445 135.87 37.6445C136.354 37.6445 137.009 37.6445 137.968 37.6445" stroke="#181B22" stroke-width="1.61693" stroke-linecap="round"/>
<path d="M137.968 31.9874C137.968 31.98 137.968 31.9726 137.968 33.499C137.968 35.0255 137.968 38.086 137.968 41.6879" stroke="#181B22" stroke-width="1.61693" stroke-linecap="round"/>
<path d="M141.205 40.0708C141.176 37.6495 141.347 32.7532 142.126 32.5786C142.719 32.4278 143.716 32.1509 144.377 31.9462C145.039 31.7415 145.336 31.6174 146.053 31.1777" stroke="#181B22" stroke-width="1.61693" stroke-linecap="round"/>
<path d="M141.202 37.6444C141.214 37.6444 141.226 37.6444 141.483 37.6094C141.74 37.5744 142.241 37.5044 142.603 37.37C142.965 37.2355 143.173 37.0387 143.628 36.8359" stroke="#181B22" stroke-width="1.61693" stroke-linecap="round"/>
<path d="M141.202 41.6871C141.228 41.6871 141.476 41.6269 142.679 41.1802C143.649 40.7937 145.346 40.0827 146.305 39.7018C147.264 39.3209 147.433 39.2918 147.67 39.2617" stroke="#181B22" stroke-width="1.61693" stroke-linecap="round"/>
<path d="M130.615 47.8438C129.869 47.7353 127.498 47.9817 126.362 49.0287C124.562 50.6876 124.881 53.502 125.005 55.4859C125.053 56.2539 125.455 56.489 125.976 56.6945C126.496 56.9001 127.221 57.0566 128.171 57.1402C129.12 57.2239 130.272 57.2299 132.027 57.0406" stroke="#181B22" stroke-width="1.61693" stroke-linecap="round"/>
<path d="M135.032 57.1954C135.032 54.5676 135.103 49.0137 135.325 48.499C135.435 48.2461 135.707 48.1017 135.932 47.9186C136.156 47.7355 136.367 47.5415 136.791 48.176C138.664 52.346 139.09 53.8309 139.328 54.7346C139.494 55.2768 139.751 55.9887 140.017 56.7979" stroke="#181B22" stroke-width="1.61693" stroke-linecap="round"/>
<path d="M134.714 53.6683C134.714 53.6573 134.714 53.6462 135.045 53.635C135.377 53.6238 136.039 53.6127 136.702 53.5028C137.364 53.3928 138.006 53.1842 139.341 52.8105" stroke="#181B22" stroke-width="1.61693" stroke-linecap="round"/>
<path d="M140.385 47.4927C140.417 47.4927 140.613 47.4927 141.897 47.2629C143.002 47.0332 145.026 46.5737 146.141 46.3236C147.256 46.0735 147.401 46.0468 147.632 46.0176" stroke="#181B22" stroke-width="1.61693" stroke-linecap="round"/>
<path d="M144.564 47.0566C144.564 47.1037 144.564 47.1507 144.564 48.4657C144.564 49.7807 144.564 52.3623 144.609 53.7597C144.655 55.157 144.745 55.292 144.84 55.5441" stroke="#181B22" stroke-width="1.61693" stroke-linecap="round"/>
<path d="M154.209 43.5761C154.236 43.5761 154.263 43.5761 155.04 43.5549C155.817 43.5336 157.343 43.4911 158.915 43.4473" stroke="#181B22" stroke-width="1.61693" stroke-linecap="round"/>
<path d="M156.816 43.9239C156.816 43.9124 156.836 45.1112 156.989 47.6887C157.122 49.0615 157.365 50.566 157.509 51.4092C157.653 52.2523 157.691 52.3885 157.834 52.6827" stroke="#181B22" stroke-width="1.61693" stroke-linecap="round"/>
<path d="M155.003 54.1279C155.035 54.1279 155.444 54.1279 156.448 54.0395C157.875 53.7741 159.094 53.4965 159.736 53.3492C160.002 53.2972 160.144 53.2913 160.29 53.2852" stroke="#181B22" stroke-width="1.61693" stroke-linecap="round"/>
<path d="M125.245 72.6646C125.245 72.6538 125.235 71.9322 125.139 70.3437C125.024 68.4516 124.728 66.7412 124.782 65.6511C124.802 65.2433 124.941 65.1426 125.116 65.0308C125.99 64.4713 127.008 64.5665 127.534 64.6263C127.752 64.6512 127.844 64.8058 127.901 64.9954C128.029 65.4272 127.921 65.8582 127.752 66.2022C127.305 67.1092 126.466 67.4952 126.106 67.7311C126.172 67.796 126.439 67.8834 127.117 68.4024C127.795 68.9213 128.876 69.8692 130.245 70.984" stroke="#181B22" stroke-width="1.61693" stroke-linecap="round"/>
<path d="M133.077 70.8204C133.077 70.7885 133.077 68.6655 133.048 65.3734C133.036 63.9842 132.875 63.6275 132.945 63.3523C133.042 63.2294 133.261 63.1406 133.877 62.8036C134.494 62.4666 135.5 61.8842 136.839 61.2031" stroke="#181B22" stroke-width="1.61693" stroke-linecap="round"/>
<path d="M134.057 66.6214C134.047 66.6214 134.261 66.5264 134.947 66.1976C135.413 65.9638 136.12 65.5938 136.566 65.377C137.013 65.1602 137.179 65.1078 137.389 65.0527" stroke="#181B22" stroke-width="1.61693" stroke-linecap="round"/>
<path d="M133.129 71.2207C133.124 71.215 133.118 71.2092 133.267 71.1246C133.417 71.04 133.722 70.8768 134.312 70.6453C134.901 70.4139 135.766 70.1193 136.895 69.7695" stroke="#181B22" stroke-width="1.61693" stroke-linecap="round"/>
<path d="M139.189 69.24C139.189 69.2077 139.212 68.2274 139.466 65.8155C139.62 64.357 140.135 62.4637 140.417 61.4377C140.699 60.4117 140.812 60.3209 141.195 60.7717C141.577 61.2225 142.226 62.2176 142.847 63.4184C143.468 64.6192 144.041 65.9956 144.688 67.5458" stroke="#181B22" stroke-width="1.61693" stroke-linecap="round"/>
<path d="M140.135 64.7805C140.146 64.7805 140.446 64.7805 141.102 64.7392C141.463 64.6978 141.883 64.6151 142.225 64.5708C142.566 64.5265 142.816 64.523 143.074 64.5195" stroke="#181B22" stroke-width="1.61693" stroke-linecap="round"/>
<path d="M145.617 59.6816C145.617 59.7247 145.617 61.8722 145.624 65.161C145.628 66.765 145.975 67.2361 146.136 67.4997C146.214 67.6287 146.4 67.6593 146.549 67.6496C146.835 67.5663 147.287 67.4195 148.04 67.2952C148.483 67.242 149.047 67.2088 149.695 67.0637" stroke="#181B22" stroke-width="1.61693" stroke-linecap="round"/>
<path d="M151.33 59.002C151.33 59.0124 151.33 61.3894 151.372 65.0451C151.387 66.3297 151.498 66.4536 151.599 66.5641C151.814 66.7671 152.991 66.2697 154.727 65.3167C155.404 64.9566 155.667 64.8471 156.145 64.7083" stroke="#181B22" stroke-width="1.61693" stroke-linecap="round"/>
<path d="M157.715 57.7083C157.729 58.0219 158.121 59.4856 159.081 60.9106C159.261 61.1773 159.428 61.2369 159.575 61.2697C159.871 61.3355 160.532 59.6261 161.274 57.2972C161.509 56.8903 161.13 59.3866 160.542 63.3409C160.32 65.0969 160.253 66.3443 160.184 67.4664" stroke="#181B22" stroke-width="1.61693" stroke-linecap="round"/>
<path d="M129.568 76.8225C129.559 77.1697 130.174 79.3225 130.762 80.6348C131.2 81.6119 131.634 82.2445 131.874 82.3586C132.121 82.4766 132.626 81.4124 133.305 79.505C134.098 77.2775 134.453 75.8901 134.6 75.8403C135.267 75.6144 136.874 79.0283 138.212 80.4751C138.327 80.5994 138.507 80.6662 138.661 80.6528C138.815 80.6394 138.961 80.5186 139.203 79.5043C139.444 78.49 139.778 76.5857 140.161 74.502" stroke="#181B22" stroke-width="1.61693" stroke-linecap="round"/>
<path d="M142.145 79.5665C142.145 79.0003 142.578 75.7716 143.038 74.2012C143.315 74.2009 144.145 74.9973 145.479 76.5951C146.151 77.4561 146.813 78.4187 147.514 79.3963" stroke="#181B22" stroke-width="1.61693" stroke-linecap="round"/>
<path d="M142.144 78.3925C142.349 78.3844 143.202 78.2305 144.039 78.0181C144.53 77.8279 144.936 77.6439 145.21 77.5272C145.35 77.4756 145.492 77.4395 145.639 77.4023" stroke="#181B22" stroke-width="1.61693" stroke-linecap="round"/>
<path d="M150.252 78.9324C150.252 77.2262 150.166 73.3787 150.096 72.887C150.07 72.6976 150.598 73.1787 151.588 74.1584C153.552 76.1041 154.953 77.0099 154.946 76.6007C154.833 75.9447 154.665 74.5763 154.539 72.9568C154.496 72.3052 154.495 71.9995 154.435 71.6562" stroke="#181B22" stroke-width="1.61693" stroke-linecap="round"/>
<path d="M157.431 70.469C157.698 70.4362 159.501 70.2333 160.586 70.1399C160.902 70.1249 161.235 69.9643 161.566 69.6974C161.728 69.5807 161.879 69.5019 162.266 69.3984" stroke="#181B22" stroke-width="1.61693" stroke-linecap="round"/>
<path d="M159.995 70.4239C159.995 70.4128 159.995 72.0036 160.005 74.5006C160.032 75.5572 160.094 75.8695 160.191 76.1618C160.246 76.3027 160.309 76.4285 160.392 76.5614" stroke="#181B22" stroke-width="1.61693" stroke-linecap="round"/>
<path d="M147.588 84.2227C147.597 84.3194 147.605 84.4161 148.287 86.2336C148.969 88.0512 150.323 91.5866 150.922 93.3199C151.52 95.0533 151.322 94.8775 150.457 94.3725C148.095 92.9925 145.803 91.9116 144.838 91.4991C144.558 91.3795 144.741 91.3629 144.926 91.4063C147.288 91.9616 150.36 94.5378 150.662 94.5391C150.82 94.5156 150.986 94.4431 151.58 93.1942C152.175 91.9453 153.193 89.5221 154.48 86.7537" stroke="#181B22" stroke-width="1.61693" stroke-linecap="round"/>
<path d="M198.502 31.1621C198.007 31.1621 196.684 31.3112 195.445 32.1717C193.85 33.2792 193.425 34.3444 192.989 35.2715C191.981 37.4134 192.827 40.8385 193.067 41.2615C193.922 41.8299 195.384 41.8995 196.87 41.8611C197.463 41.8298 197.726 41.7747 197.997 41.7179" stroke="#181B22" stroke-width="1.61693" stroke-linecap="round"/>
<path d="M203.423 33.6316C203.407 33.6316 203.195 33.7732 202.85 34.2785C201.476 36.2939 202.665 38.7415 202.857 39.1969C202.947 39.4116 203.126 39.5425 203.31 39.6341C203.681 39.8187 204.172 39.696 204.622 39.4685C205.405 39.0728 206.308 37.0645 206.89 35.2679C207.027 34.8428 206.928 34.2582 206.857 33.8965C206.787 33.5348 206.646 33.3931 206.432 33.3182C206.218 33.2433 205.936 33.2395 205.654 33.2875C205.372 33.3356 205.1 33.4357 204.256 33.6347" stroke="#181B22" stroke-width="1.61693" stroke-linecap="round"/>
<path d="M210.17 33.0939C210 33.3021 209.105 34.7918 208.637 36.3819C208.249 37.703 208.469 38.8395 208.782 39.277C209.137 39.7721 209.836 39.8415 210.404 39.9223C211.073 40.0178 211.631 39.8251 212.005 39.5314C212.941 38.7965 212.972 37.0053 212.888 35.3221C212.247 33.762 211.776 33.1659 211.419 32.8251C211.231 32.6954 211.027 32.6536 210.494 32.9539" stroke="#181B22" stroke-width="1.61693" stroke-linecap="round"/>
<path d="M215.935 32.1172C215.935 32.132 215.935 34.9078 216.159 38.9841C216.232 40.3093 216.832 40.0564 217.251 39.887C217.671 39.7177 218.049 39.6219 218.618 39.564C219.187 39.506 219.935 39.4886 220.706 39.4707" stroke="#181B22" stroke-width="1.61693" stroke-linecap="round"/>
<path d="M227.722 40.5889C227.722 39.9138 227.953 37.5371 229.66 33.0162C229.928 32.3067 230.044 32.6861 230.146 33.1173C230.409 34.0533 231.417 37.0244 232.755 40.837C233.251 42.1986 233.376 42.3967 233.506 42.5582" stroke="#181B22" stroke-width="1.61693" stroke-linecap="round"/>
<path d="M228.383 37.9707H232.406" stroke="#181B22" stroke-width="1.61693" stroke-linecap="round"/>
<path d="M236.276 42.1857C236.276 42.1398 236.276 38.9531 236.767 34.1548C236.941 32.4563 238.24 32.5081 238.881 32.5354C239.522 32.5626 239.792 32.629 239.994 32.7936C240.41 33.1329 240.367 33.9877 240.176 34.8465C239.915 36.0179 238.7 36.6871 237.776 37.0976C237.457 37.2392 236.974 37.3031 236.867 37.5149C237.027 38.0395 238.127 39.9398 239.444 42.4242C239.938 43.3304 240.078 43.5168 240.57 43.9006" stroke="#181B22" stroke-width="1.61693" stroke-linecap="round"/>
<path d="M243.649 33.3557C243.664 33.3557 243.679 33.3557 244.814 33.3517C245.949 33.3477 248.204 33.3398 250.789 33.2969" stroke="#181B22" stroke-width="1.61693" stroke-linecap="round"/>
<path d="M247.055 33.498C247.055 33.5052 247.055 33.5123 247.055 35.2208C247.055 36.9293 247.055 40.339 246.96 43.7135" stroke="#181B22" stroke-width="1.61693" stroke-linecap="round"/>
<path d="M255.982 33.0833C255.992 33.0542 256.001 33.0251 256 34.1882C255.998 35.3514 255.985 37.7076 255.947 39.0703C255.908 40.4331 255.844 40.7309 255.776 41.3534" stroke="#181B22" stroke-width="1.61693" stroke-linecap="round"/>
<path d="M255.044 45.9609C255.06 45.9767 254.915 45.8572 254.679 45.5476C254.558 45.3887 254.592 45.133 254.672 44.9474C254.752 44.7617 254.917 44.63 255.101 44.56C255.285 44.49 255.483 44.4856 255.599 44.5952C255.716 44.7048 255.745 44.9284 255.452 45.3954" stroke="#181B22" stroke-width="1.61693" stroke-linecap="round"/>
</svg>
